<?xml version="1.0" encoding="utf-8"?>
<!-- Generator: Adobe Illustrator 26.3.1, SVG Export Plug-In . SVG Version: 6.00 Build 0)  -->
<svg version="1.1" id="Layer_1" focusable="false" xmlns="http://www.w3.org/2000/svg" xmlns:xlink="http://www.w3.org/1999/xlink"
	 x="0px" y="0px" viewBox="0 0 24 24" style="enable-background:new 0 0 24 24;" xml:space="preserve">
<style type="text/css">
	.st0{fill-rule:evenodd;clip-rule:evenodd;}
</style>
<path class="st0" d="M3,5c0-1.1,0.9-2,2-2h14c1.1,0,2,0.9,2,2v14c0,1.1-0.9,2-2,2H5c-1.1,0-2-0.9-2-2V5z M5,7.1C5,6.5,5.4,6,6,6h4
	c0.6,0,1,0.5,1,1.1v10.9c0,0.6-0.4,1.1-1,1.1H6c-0.6,0-1-0.5-1-1.1V7.1z M18,19c0.6,0,1-0.4,1-1v-6c0-0.6-0.4-1-1-1h-4
	c-0.6,0-1,0.4-1,1v6c0,0.6,0.4,1,1,1H18z"/>
</svg>
