<svg width="24" height="24" role="presentation" focusable="false" viewBox="0 0 24 24" xmlns="http://www.w3.org/2000/svg"><path fill-rule="evenodd" clip-rule="evenodd" d="M7 6C7 4.89543 7.89543 4 9 4H17C18.1046 4 19 4.89543 19 6V9H17V6H7ZM5 7C3.89543 7 3 7.89543 3 9V15C3 16.1046 3.89543 17 5 17H8V15H5V9H15C15 7.89543 14.1046 7 13 7H5ZM9 12C9 10.8954 9.89543 10 11 10H19C20.1046 10 21 10.8954 21 12V18C21 19.1046 20.1046 20 19 20H11C9.89543 20 9 19.1046 9 18V12ZM11 18V12H19V18H11Z" fill="currentColor"/></svg>