<?xml version="1.0" encoding="utf-8"?>
<!-- Generator: Adobe Illustrator 26.3.1, SVG Export Plug-In . SVG Version: 6.00 Build 0)  -->
<svg version="1.0" id="Layer_1" xmlns="http://www.w3.org/2000/svg" xmlns:xlink="http://www.w3.org/1999/xlink" x="0px" y="0px"
	 viewBox="0 0 126 36" style="enable-background:new 0 0 126 36;" xml:space="preserve">
<style type="text/css">
	.st0{enable-background:new    ;}
	.st1{fill:#333366;}
	.st2{fill-rule:evenodd;clip-rule:evenodd;fill:url(#SVGID_1_);}
</style>
<g class="st0">
	<path class="st1" d="M34.2,30.3V3.8h6.4v21.1h13.4v5.4H34.2z"/>
	<path class="st1" d="M56.6,8.5V3.1h6.2v5.4H56.6z M56.6,30.3V10.7h6.2v19.6H56.6z"/>
	<path class="st1" d="M75.2,30.7c-1.7,0-3.5-0.3-5.1-0.8c-1.7-0.5-3.1-1.3-4.3-2.3l2.2-3.7c1.2,0.8,2.5,1.5,3.6,1.9
		c1.2,0.4,2.3,0.7,3.4,0.7c0.8,0,1.4-0.1,1.9-0.4c0.4-0.3,0.7-0.7,0.7-1.2s-0.3-0.9-0.8-1.2c-0.6-0.3-1.5-0.6-2.9-1
		c-1.4-0.4-2.5-0.7-3.5-1.1c-1-0.3-1.7-0.7-2.3-1.2c-0.6-0.4-1-0.9-1.3-1.5c-0.3-0.5-0.4-1.2-0.4-1.9c0-1,0.2-1.9,0.6-2.7
		c0.4-0.8,1-1.5,1.7-2.1c0.7-0.6,1.6-1,2.6-1.3c1-0.3,2.1-0.5,3.3-0.5c1.5,0,3,0.2,4.3,0.6c1.3,0.4,2.6,1.1,3.9,2.2l-2.4,3.6
		c-1.2-0.8-2.2-1.3-3.1-1.7c-0.9-0.3-1.8-0.5-2.7-0.5c-0.7,0-1.2,0.1-1.7,0.4S72,15.5,72,16.1c0,0.5,0.3,1,0.8,1.2
		c0.5,0.3,1.4,0.6,2.8,0.9c1.5,0.4,2.7,0.7,3.7,1.1c1,0.4,1.8,0.8,2.4,1.3c0.6,0.5,1.1,1,1.4,1.6c0.3,0.6,0.4,1.3,0.4,2.1
		c0,1.9-0.8,3.5-2.3,4.6C79.8,30.1,77.7,30.7,75.2,30.7z"/>
	<path class="st1" d="M99.8,29.3c-0.9,0.3-1.8,0.7-2.9,1c-1.1,0.3-2.2,0.4-3.3,0.4c-0.8,0-1.5-0.1-2.2-0.3c-0.7-0.2-1.3-0.5-1.8-0.9
		c-0.5-0.4-0.9-1-1.2-1.6s-0.4-1.5-0.4-2.4V15.2h-2.6v-4.5h2.6V4.5h6.2v6.2h4.2v4.5h-4.2v8.2c0,0.6,0.2,1.1,0.5,1.4
		c0.3,0.3,0.8,0.4,1.3,0.4c0.5,0,0.9-0.1,1.4-0.2c0.5-0.1,0.9-0.3,1.3-0.5L99.8,29.3z"/>
	<path class="st1" d="M111.5,30.7c-1.7,0-3.3-0.3-4.7-0.8s-2.5-1.3-3.5-2.2c-0.9-0.9-1.6-2-2.1-3.2c-0.5-1.2-0.7-2.5-0.7-3.9
		s0.2-2.6,0.7-3.9c0.5-1.2,1.2-2.3,2.1-3.2s2.1-1.7,3.5-2.2c1.4-0.6,2.9-0.8,4.7-0.8c1.7,0,3.3,0.3,4.6,0.8c1.4,0.6,2.5,1.3,3.4,2.2
		c0.9,0.9,1.7,2,2.1,3.2c0.5,1.2,0.7,2.5,0.7,3.9s-0.2,2.6-0.7,3.9c-0.5,1.2-1.2,2.3-2.1,3.2c-0.9,0.9-2.1,1.7-3.5,2.2
		S113.2,30.7,111.5,30.7z M106.9,20.5c0,1.5,0.4,2.8,1.3,3.7c0.9,0.9,2,1.4,3.3,1.4c0.6,0,1.2-0.1,1.8-0.4c0.5-0.2,1-0.6,1.4-1
		c0.4-0.4,0.7-1,1-1.6c0.2-0.6,0.4-1.3,0.4-2.1c0-1.5-0.4-2.8-1.3-3.7c-0.9-0.9-1.9-1.4-3.2-1.4c-0.7,0-1.3,0.1-1.8,0.4
		c-0.6,0.2-1,0.6-1.4,1c-0.4,0.4-0.7,1-1,1.6C107,19.1,106.9,19.8,106.9,20.5z"/>
</g>
<linearGradient id="SVGID_1_" gradientUnits="userSpaceOnUse" x1="-3441.3245" y1="83.7246" x2="-3441.3245" y2="82.7243" gradientTransform="matrix(25.2082 0 0 25.1919 86762.3984 -2078.8826)">
	<stop  offset="0" style="stop-color:#0052CC"/>
	<stop  offset="1" style="stop-color:#2684FF"/>
</linearGradient>
<path class="st2" d="M22.4,5.1H3.2c-1.7,0-3,1.3-3,3v19.2c0,0.8,0.3,1.6,0.9,2.1s1.3,0.9,2.1,0.9h19.2c0.8,0,1.6-0.3,2.1-0.9
	c0.6-0.6,0.9-1.3,0.9-2.1V8.1C25.4,6.4,24.1,5.1,22.4,5.1z M11.1,23.2c0,0.3-0.1,0.5-0.3,0.7s-0.4,0.3-0.7,0.3H5.9c-0.5,0-1-0.4-1-1
	V10.8c0-0.5,0.4-1,1-1h4.2c0.5,0,1,0.4,1,1V23.2z M20.8,17.5c0,0.3-0.1,0.5-0.3,0.7c-0.2,0.2-0.4,0.3-0.7,0.3h-4.2c-0.5,0-1-0.4-1-1
	v-6.8c0-0.5,0.4-1,1-1h4.2c0.5,0,1,0.4,1,1V17.5z"/>
</svg>
