<?xml version="1.0" encoding="utf-8"?>
<!-- Generator: Adobe Illustrator 26.3.1, SVG Export Plug-In . SVG Version: 6.00 Build 0)  -->
<svg version="1.1" id="Layer_1" xmlns="http://www.w3.org/2000/svg" xmlns:xlink="http://www.w3.org/1999/xlink" x="0px" y="0px"
	 viewBox="0 0 102.6 36" style="enable-background:new 0 0 102.6 36;" xml:space="preserve">
<style type="text/css">
	.st0{fill:#333366;}
	.st1{fill-rule:evenodd;clip-rule:evenodd;fill:url(#SVGID_1_);}
</style>
<path class="st0" d="M34.3,11.2V6.7h6.2v4.6h-6.2V11.2z M34.3,29.7V13.1h6.2v16.6H34.3z"/>
<path class="st0" d="M52.9,30c-1.7,0-3.5-0.3-5.1-0.7c-1.7-0.4-3.1-1.1-4.3-1.9l2.2-3.1c1.2,0.7,2.5,1.3,3.6,1.6
	c1.2,0.3,2.3,0.6,3.4,0.6c0.8,0,1.4-0.1,1.9-0.3c0.4-0.3,0.7-0.6,0.7-1s-0.3-0.8-0.8-1c-0.6-0.3-1.5-0.5-2.9-0.8s-2.5-0.6-3.5-0.9
	s-1.7-0.6-2.3-1c-0.6-0.3-1-0.8-1.3-1.3c-0.3-0.4-0.4-1-0.4-1.6c0-0.8,0.2-1.6,0.6-2.3c0.4-0.7,1-1.3,1.7-1.8s1.6-0.8,2.6-1.1
	s2.1-0.4,3.3-0.4c1.5,0,3,0.2,4.3,0.5s2.6,0.9,3.9,1.9l-2.4,3c-1.2-0.7-2.2-1.1-3.1-1.4s-1.8-0.4-2.7-0.4c-0.7,0-1.2,0.1-1.7,0.3
	s-0.9,0.3-0.9,0.8c0,0.4,0.3,0.8,0.8,1c0.5,0.3,1.4,0.5,2.8,0.8c1.5,0.3,2.7,0.6,3.7,0.9s1.8,0.7,2.4,1.1s1.1,0.8,1.4,1.4
	s0.4,1.1,0.4,1.8c0,1.6-0.8,3-2.3,3.9C57.5,29.5,55.4,30,52.9,30z"/>
<path class="st0" d="M77.5,28.8c-0.9,0.3-1.8,0.6-2.9,0.8s-2.2,0.3-3.3,0.3c-0.8,0-1.5-0.1-2.2-0.3s-1.3-0.4-1.8-0.8
	c-0.5-0.3-0.9-0.8-1.2-1.4c-0.3-0.5-0.4-1.3-0.4-2v-8.7h-2.6v-3.8h2.6v-5h6.2v5.2h4.2v3.8h-4.2v6.9c0,0.5,0.2,0.9,0.5,1.2
	s0.8,0.3,1.3,0.3s0.9-0.1,1.4-0.2s0.9-0.3,1.3-0.4L77.5,28.8z"/>
<path class="st0" d="M89.2,30c-1.7,0-3.3-0.3-4.7-0.7c-1.4-0.4-2.5-1.1-3.5-1.9c-0.9-0.8-1.6-1.7-2.1-2.7s-0.7-2.1-0.7-3.3
	c0-1.2,0.2-2.2,0.7-3.3c0.5-1,1.2-1.9,2.1-2.7s2.1-1.4,3.5-1.9s2.9-0.7,4.7-0.7c1.7,0,3.3,0.3,4.6,0.7c1.4,0.5,2.5,1.1,3.4,1.9
	c0.9,0.8,1.7,1.7,2.1,2.7c0.5,1,0.7,2.1,0.7,3.3c0,1.2-0.2,2.2-0.7,3.3c-0.5,1-1.2,1.9-2.1,2.7c-0.9,0.8-2.1,1.4-3.5,1.9
	C92.3,29.7,90.9,30,89.2,30z M84.6,21.4c0,1.3,0.4,2.4,1.3,3.1s2,1.2,3.3,1.2c0.6,0,1.2-0.1,1.8-0.3c0.5-0.2,1-0.5,1.4-0.8
	s0.7-0.8,1-1.4c0.2-0.5,0.4-1.1,0.4-1.8c0-1.3-0.4-2.4-1.3-3.1s-1.9-1.2-3.2-1.2c-0.7,0-1.3,0.1-1.8,0.3c-0.6,0.2-1,0.5-1.4,0.8
	s-0.7,0.8-1,1.4C84.7,20.2,84.6,20.8,84.6,21.4z"/>
<linearGradient id="SVGID_1_" gradientUnits="userSpaceOnUse" x1="-5162.125" y1="125.1798" x2="-5162.125" y2="124.018" gradientTransform="matrix(25.2082 0 0 -25.1919 130143.4922 3156.2827)">
	<stop  offset="0" style="stop-color:#0052CC"/>
	<stop  offset="1" style="stop-color:#2684FF"/>
</linearGradient>
<path class="st1" d="M30.2,28.5V6.3c0-0.9-0.3-1.7-1-2.4c-0.6-0.7-1.5-1-2.4-1H4.5c-0.9,0-1.7,0.5-2.4,1S1,5.3,1,6.3v22.3
	c0,2,1.5,3.5,3.5,3.5h22.3C28.7,32,30.2,30.5,30.2,28.5z M13.6,25.2c0,0.8-0.6,1.4-1.2,1.4H7.6c-0.7,0-1.2-0.7-1.2-1.4V8.1
	c0-0.8,0.6-1.4,1.2-1.4h4.9c0.3,0,0.6,0.1,0.8,0.4c0.2,0.3,0.3,0.6,0.3,1V25.2z M24.9,25.5c0,0.7-0.6,1.2-1.2,1.2h-4.9
	c-0.7,0-1.2-0.6-1.2-1.2v-7.9c0-0.7,0.6-1.2,1.2-1.2h4.9c0.3,0,0.6,0.1,0.8,0.3c0.2,0.2,0.3,0.5,0.3,0.8V25.5z"/>
</svg>
