<?xml version="1.0" encoding="utf-8"?>
<!-- Generator: Adobe Illustrator 26.3.1, SVG Export Plug-In . SVG Version: 6.00 Build 0)  -->
<svg version="1.1" id="Layer_1" xmlns="http://www.w3.org/2000/svg" xmlns:xlink="http://www.w3.org/1999/xlink" x="0px" y="0px"
	 viewBox="0 0 126 36" style="enable-background:new 0 0 126 36;" xml:space="preserve">
<style type="text/css">
	.st0{enable-background:new    ;}
	.st1{fill:#333366;}
	.st2{fill-rule:evenodd;clip-rule:evenodd;fill:url(#SVGID_1_);}
</style>
<g class="st0">
	<path class="st1" d="M31.2,30V7.6h6.4v17.8H51V30H31.2z"/>
	<path class="st1" d="M53.6,11.5V7h6.2v4.6h-6.2V11.5z M53.6,30V13.4h6.2V30H53.6z"/>
	<path class="st1" d="M72.2,30.3c-1.7,0-3.5-0.3-5.1-0.7c-1.7-0.4-3.1-1.1-4.3-1.9l2.2-3.1c1.2,0.7,2.5,1.3,3.6,1.6
		c1.2,0.3,2.3,0.6,3.4,0.6c0.8,0,1.4-0.1,1.9-0.3c0.4-0.3,0.7-0.6,0.7-1s-0.3-0.8-0.8-1c-0.6-0.3-1.5-0.5-2.9-0.8s-2.5-0.6-3.5-0.9
		s-1.7-0.6-2.3-1c-0.6-0.3-1-0.8-1.3-1.3c-0.3-0.4-0.4-1-0.4-1.6c0-0.8,0.2-1.6,0.6-2.3c0.4-0.7,1-1.3,1.7-1.8s1.6-0.8,2.6-1.1
		s2.1-0.4,3.3-0.4c1.5,0,3,0.2,4.3,0.5s2.6,0.9,3.9,1.9l-2.4,3c-1.2-0.7-2.2-1.1-3.1-1.4s-1.8-0.4-2.7-0.4c-0.7,0-1.2,0.1-1.7,0.3
		S69,17.5,69,18c0,0.4,0.3,0.8,0.8,1c0.5,0.3,1.4,0.5,2.8,0.8c1.5,0.3,2.7,0.6,3.7,0.9s1.8,0.7,2.4,1.1s1.1,0.8,1.4,1.4
		s0.4,1.1,0.4,1.8c0,1.6-0.8,3-2.3,3.9C76.8,29.8,74.7,30.3,72.2,30.3z"/>
	<path class="st1" d="M96.8,29.1c-0.9,0.3-1.8,0.6-2.9,0.8s-2.2,0.3-3.3,0.3c-0.8,0-1.5-0.1-2.2-0.3s-1.3-0.4-1.8-0.8
		c-0.5-0.3-0.9-0.8-1.2-1.4c-0.3-0.5-0.4-1.3-0.4-2V17h-2.6v-3.8H85v-5h6.2v5.2h4.2v3.8h-4.2v6.9c0,0.5,0.2,0.9,0.5,1.2
		s0.8,0.3,1.3,0.3s0.9-0.1,1.4-0.2s0.9-0.3,1.3-0.4L96.8,29.1z"/>
	<path class="st1" d="M108.5,30.3c-1.7,0-3.3-0.3-4.7-0.7c-1.4-0.4-2.5-1.1-3.5-1.9c-0.9-0.8-1.6-1.7-2.1-2.7s-0.7-2.1-0.7-3.3
		c0-1.2,0.2-2.2,0.7-3.3c0.5-1,1.2-1.9,2.1-2.7s2.1-1.4,3.5-1.9s2.9-0.7,4.7-0.7c1.7,0,3.3,0.3,4.6,0.7c1.4,0.5,2.5,1.1,3.4,1.9
		c0.9,0.8,1.7,1.7,2.1,2.7c0.5,1,0.7,2.1,0.7,3.3c0,1.2-0.2,2.2-0.7,3.3c-0.5,1-1.2,1.9-2.1,2.7c-0.9,0.8-2.1,1.4-3.5,1.9
		C111.6,30,110.2,30.3,108.5,30.3z M103.9,21.7c0,1.3,0.4,2.4,1.3,3.1s2,1.2,3.3,1.2c0.6,0,1.2-0.1,1.8-0.3c0.5-0.2,1-0.5,1.4-0.8
		s0.7-0.8,1-1.4c0.2-0.5,0.4-1.1,0.4-1.8c0-1.3-0.4-2.4-1.3-3.1s-1.9-1.2-3.2-1.2c-0.7,0-1.3,0.1-1.8,0.3c-0.6,0.2-1,0.5-1.4,0.8
		s-0.7,0.8-1,1.4C104,20.5,103.9,21.1,103.9,21.7z"/>
</g>
<linearGradient id="SVGID_1_" gradientUnits="userSpaceOnUse" x1="-5162.2363" y1="125.0871" x2="-5162.2363" y2="124.0868" gradientTransform="matrix(-25.2082 0 0 -25.1919 -130117.8906 3156.2827)">
	<stop  offset="0" style="stop-color:#0052CC"/>
	<stop  offset="1" style="stop-color:#2684FF"/>
</linearGradient>
<path class="st2" d="M3.2,30.3h19.2c1.7,0,3-1.3,3-3V8.1c0-0.8-0.3-1.6-0.9-2.1s-1.3-0.9-2.1-0.9H3.2C2.4,5.1,1.6,5.4,1.1,6
	C0.5,6.6,0.2,7.3,0.2,8.1v19.2C0.2,29,1.5,30.3,3.2,30.3z M14.5,16.4c0-0.2,0.1-0.4,0.3-0.5c0.2-0.2,0.4-0.2,0.7-0.2h4.2
	c0.5,0,1,0.3,1,0.8v9.3c0,0.4-0.4,0.8-1,0.8h-4.2c-0.5,0-1-0.3-1-0.8V16.4z M4.8,11.3c0-0.6,0.1-1,0.3-1.4c0.2-0.4,0.4-0.6,0.7-0.6
	H10c0.5,0,1,0.8,1,2v13.3c0,1-0.4,2-1,2H5.8c-0.5,0-1-0.8-1-2V11.3z"/>
</svg>
