<?xml version="1.0" encoding="utf-8"?>
<!-- Generator: Adobe Illustrator 26.3.1, SVG Export Plug-In . SVG Version: 6.00 Build 0)  -->
<svg version="1.1" id="Layer_1" xmlns="http://www.w3.org/2000/svg" xmlns:xlink="http://www.w3.org/1999/xlink" x="0px" y="0px"
	 viewBox="0 0 126 36" style="enable-background:new 0 0 126 36;" xml:space="preserve">
<style type="text/css">
	.st0{enable-background:new    ;}
	.st1{fill:#333366;}
	.st2{fill-rule:evenodd;clip-rule:evenodd;fill:url(#SVGID_1_);}
</style>
<g class="st0">
	<path class="st1" d="M31.2,30V7.6h6.4v17.8H51V30H31.2z"/>
	<path class="st1" d="M53.6,11.5V7h6.2v4.6H53.6z M53.6,30V13.4h6.2V30H53.6z"/>
	<path class="st1" d="M72.2,30.3c-1.7,0-3.5-0.3-5.1-0.7c-1.7-0.4-3.1-1.1-4.3-1.9l2.2-3.1c1.2,0.7,2.5,1.3,3.6,1.6
		c1.2,0.3,2.3,0.6,3.4,0.6c0.8,0,1.4-0.1,1.9-0.3c0.4-0.3,0.7-0.6,0.7-1c0-0.4-0.3-0.8-0.8-1c-0.6-0.3-1.5-0.5-2.9-0.8
		c-1.4-0.3-2.5-0.6-3.5-0.9c-1-0.3-1.7-0.6-2.3-1c-0.6-0.3-1-0.8-1.3-1.3c-0.3-0.4-0.4-1-0.4-1.6c0-0.8,0.2-1.6,0.6-2.3
		c0.4-0.7,1-1.3,1.7-1.8s1.6-0.8,2.6-1.1c1-0.3,2.1-0.4,3.3-0.4c1.5,0,3,0.2,4.3,0.5c1.3,0.3,2.6,0.9,3.9,1.9l-2.4,3
		c-1.2-0.7-2.2-1.1-3.1-1.4c-0.9-0.3-1.8-0.4-2.7-0.4c-0.7,0-1.2,0.1-1.7,0.3S69,17.5,69,18c0,0.4,0.3,0.8,0.8,1
		c0.5,0.3,1.4,0.5,2.8,0.8c1.5,0.3,2.7,0.6,3.7,0.9c1,0.3,1.8,0.7,2.4,1.1c0.6,0.4,1.1,0.8,1.4,1.4s0.4,1.1,0.4,1.8
		c0,1.6-0.8,3-2.3,3.9C76.8,29.8,74.7,30.3,72.2,30.3z"/>
	<path class="st1" d="M96.8,29.1c-0.9,0.3-1.8,0.6-2.9,0.8s-2.2,0.3-3.3,0.3c-0.8,0-1.5-0.1-2.2-0.3s-1.3-0.4-1.8-0.8
		c-0.5-0.3-0.9-0.8-1.2-1.4c-0.3-0.5-0.4-1.3-0.4-2v-8.7h-2.6v-3.8H85V8.2h6.2v5.2h4.2v3.8h-4.2v6.9c0,0.5,0.2,0.9,0.5,1.2
		s0.8,0.3,1.3,0.3s0.9-0.1,1.4-0.2s0.9-0.3,1.3-0.4L96.8,29.1z"/>
	<path class="st1" d="M108.5,30.3c-1.7,0-3.3-0.3-4.7-0.7c-1.4-0.4-2.5-1.1-3.5-1.9c-0.9-0.8-1.6-1.7-2.1-2.7
		c-0.5-1-0.7-2.1-0.7-3.3c0-1.2,0.2-2.2,0.7-3.3c0.5-1,1.2-1.9,2.1-2.7c0.9-0.8,2.1-1.4,3.5-1.9c1.4-0.5,2.9-0.7,4.7-0.7
		c1.7,0,3.3,0.3,4.6,0.7c1.4,0.5,2.5,1.1,3.4,1.9c0.9,0.8,1.7,1.7,2.1,2.7c0.5,1,0.7,2.1,0.7,3.3c0,1.2-0.2,2.2-0.7,3.3
		c-0.5,1-1.2,1.9-2.1,2.7c-0.9,0.8-2.1,1.4-3.5,1.9C111.6,30,110.2,30.3,108.5,30.3z M103.9,21.7c0,1.3,0.4,2.4,1.3,3.1
		s2,1.2,3.3,1.2c0.6,0,1.2-0.1,1.8-0.3c0.5-0.2,1-0.5,1.4-0.8s0.7-0.8,1-1.4c0.2-0.5,0.4-1.1,0.4-1.8c0-1.3-0.4-2.4-1.3-3.1
		s-1.9-1.2-3.2-1.2c-0.7,0-1.3,0.1-1.8,0.3c-0.6,0.2-1,0.5-1.4,0.8s-0.7,0.8-1,1.4C104,20.5,103.9,21.1,103.9,21.7z"/>
</g>
<linearGradient id="SVGID_1_" gradientUnits="userSpaceOnUse" x1="-4301.7808" y1="454.5941" x2="-4301.7808" y2="455.5945" gradientTransform="matrix(25.2082 0 0 -25.1919 108452.9453 11482.3896)">
	<stop  offset="0" style="stop-color:#0052CC"/>
	<stop  offset="1" style="stop-color:#2684FF"/>
</linearGradient>
<path class="st2" d="M22.4,5.1H3.2c-1.7,0-3,1.3-3,3v19.2c0,0.8,0.3,1.6,0.9,2.1s1.3,0.9,2.1,0.9h19.2c0.8,0,1.6-0.3,2.1-0.9
	c0.6-0.6,0.9-1.3,0.9-2.1V8.1C25.4,6.4,24.1,5.1,22.4,5.1z M11.1,23.2c0,0.3-0.1,0.5-0.3,0.7s-0.4,0.3-0.7,0.3H5.9c-0.5,0-1-0.4-1-1
	V10.8c0-0.5,0.4-1,1-1h4.2c0.5,0,1,0.4,1,1V23.2z M20.8,17.5c0,0.3-0.1,0.5-0.3,0.7c-0.2,0.2-0.4,0.3-0.7,0.3h-4.2c-0.5,0-1-0.4-1-1
	v-6.8c0-0.5,0.4-1,1-1h4.2c0.5,0,1,0.4,1,1V17.5z"/>
</svg>
