<?xml version="1.0" encoding="utf-8"?>
<!-- Generator: Adobe Illustrator 26.3.1, SVG Export Plug-In . SVG Version: 6.00 Build 0)  -->
<svg version="1.1" id="Layer_1" xmlns="http://www.w3.org/2000/svg" xmlns:xlink="http://www.w3.org/1999/xlink" x="0px" y="0px"
	 viewBox="0 0 186 103" style="enable-background:new 0 0 186 103;" xml:space="preserve">
<style type="text/css">
	.st0{fill:#FFFFFF;}
	.st1{fill:#E4E4E4;}
	.st2{fill-rule:evenodd;clip-rule:evenodd;fill:#FFFFFF;}
</style>
<path class="st0" d="M4.8,40h176.4c2.6,0,4.8,1.6,4.8,3.6v55.8c0,2-2.1,3.6-4.8,3.6H4.8c-2.6,0-4.8-1.6-4.8-3.6V43.6
	C0,41.6,2.1,40,4.8,40z"/>
<rect y="46.8" class="st0" width="186" height="56.2"/>
<g>
	<path class="st1" d="M17.6,55.2h150.7c1.5,0,2.7,0.7,2.7,1.5v5.6c0,0.8-1.2,1.5-2.7,1.5H17.6c-1.5,0-2.7-0.7-2.7-1.5v-5.6
		C14.9,55.8,16.1,55.2,17.6,55.2z"/>
</g>
<g>
	<path class="st1" d="M17.1,73.4h118c1.1,0,2.1,0.7,2.1,1.5v5.6c0,0.8-0.9,1.5-2.1,1.5h-118C16,82,15,81.3,15,80.5v-5.6
		C15,74,15.9,73.4,17.1,73.4z"/>
</g>
<g>
	<path class="st1" d="M15.4,88.8h24c0.2,0,0.4,0.7,0.4,1.5v5.6c0,0.8-0.2,1.5-0.4,1.5h-24c-0.2,0-0.4-0.7-0.4-1.5v-5.6
		C15,89.5,15.2,88.8,15.4,88.8z"/>
</g>
<g>
	<path class="st1" d="M44.5,89.1h24c0.2,0,0.4,0.7,0.4,1.5v5.6c0,0.8-0.2,1.5-0.4,1.5h-24c-0.2,0-0.4-0.7-0.4-1.5v-5.6
		C44.1,89.7,44.2,89.1,44.5,89.1z"/>
</g>
<circle class="st1" cx="167.5" cy="88.8" r="8.8"/>
<path class="st2" d="M131.8,20c0-0.4,0.3-0.7,0.7-0.7h13.8c0.4,0,0.7,0.3,0.7,0.7v3.1c0,0.4-0.3,0.7-0.7,0.7h-13.8
	c-0.4,0-0.7-0.3-0.7-0.7V20z"/>
<path class="st2" d="M89.6,0.1c-0.8,0-1.4,0.6-1.4,1.4v8.1c0,0.7,0.6,1.4,1.4,1.4h8.2c0.8,0,1.4-0.6,1.4-1.4V1.5
	c0-0.7-0.6-1.4-1.4-1.4C97.8,0.1,89.6,0.1,89.6,0.1z M95,1.5c-0.4,0-0.7,0.3-0.7,0.7v3.5c0,0.4,0.3,0.7,0.7,0.7h2
	c0.4,0,0.7-0.3,0.7-0.7V2.2c0-0.4-0.3-0.7-0.7-0.7H95z M90.3,1.5c-0.4,0-0.7,0.3-0.7,0.7v6.2c0,0.4,0.3,0.7,0.7,0.7h2
	C92.7,9,93,8.7,93,8.4V2.2c0-0.4-0.3-0.7-0.7-0.7H90.3z"/>
</svg>
