<?xml version="1.0" encoding="utf-8"?>
<!-- Generator: Adobe Illustrator 26.3.1, SVG Export Plug-In . SVG Version: 6.00 Build 0)  -->
<svg version="1.1" id="Layer_1" xmlns="http://www.w3.org/2000/svg" xmlns:xlink="http://www.w3.org/1999/xlink" x="0px" y="0px"
	 viewBox="0 0 186 103" style="enable-background:new 0 0 186 103;" xml:space="preserve">
<style type="text/css">
	.st0{fill:#FFFFFF;filter:url(#Adobe_OpacityMaskFilter);}
	.st1{mask:url(#mask1_00000139253790089099714940000004851073807933935760_);}
	.st2{fill:#6B778C;}
	.st3{fill-rule:evenodd;clip-rule:evenodd;fill:#FFFFFF;}
	.st4{fill:#FFFFFF;filter:url(#Adobe_OpacityMaskFilter_00000026143364412675674580000008474718039319194504_);}
	.st5{mask:url(#mask3_00000031173658393869849640000008523395012754131381_);}
	.st6{fill:#FFFFFF;}
	.st7{fill:#FFFFFF;filter:url(#Adobe_OpacityMaskFilter_00000038375269768879556230000006220806508514908554_);}
	.st8{mask:url(#mask4_00000085948441320743895550000014528991074198785714_);}
</style>
<defs>
	<filter id="Adobe_OpacityMaskFilter" filterUnits="userSpaceOnUse" x="14.7" y="49.5" width="150" height="40.9">
		<feColorMatrix  type="matrix" values="1 0 0 0 0  0 1 0 0 0  0 0 1 0 0  0 0 0 1 0"/>
	</filter>
</defs>
<mask maskUnits="userSpaceOnUse" x="14.7" y="49.5" width="150" height="40.9" id="mask1_00000139253790089099714940000004851073807933935760_">
	<path class="st0" d="M9.4,32.5h188.2c2.8,0,5.1,2.3,5.1,5.1V116c0,2.8-2.3,5.1-5.1,5.1H9.4c-2.8,0-5.1-2.3-5.1-5.1V37.6
		C4.3,34.8,6.6,32.5,9.4,32.5z"/>
</mask>
<g class="st1">
	<path class="st2" d="M17.2,49.5h144.9c1.4,0,2.6,1.1,2.6,2.6v9.7c0,1.4-1.1,2.6-2.6,2.6H17.2c-1.4,0-2.6-1.1-2.6-2.6v-9.7
		C14.7,50.7,15.8,49.5,17.2,49.5z"/>
	<path class="st2" d="M17.2,75.7h50.3c1.4,0,2.6,1.1,2.6,2.6v9.7c0,1.4-1.1,2.6-2.6,2.6H17.2c-1.4,0-2.6-1.1-2.6-2.6v-9.7
		C14.7,76.8,15.8,75.7,17.2,75.7z"/>
</g>
<path class="st3" d="M68.3,20c0-0.4,0.3-0.7,0.7-0.7h21.8c0.4,0,0.7,0.3,0.7,0.7v3.1c0,0.4-0.3,0.7-0.7,0.7H68.9
	c-0.4,0-0.7-0.3-0.7-0.7V20z"/>
<defs>
	<filter id="Adobe_OpacityMaskFilter_00000035532649274808623200000017993683100816534702_" filterUnits="userSpaceOnUse">
		<feColorMatrix  type="matrix" values="1 0 0 0 0  0 1 0 0 0  0 0 1 0 0  0 0 0 1 0"/>
	</filter>
</defs>
<mask maskUnits="userSpaceOnUse" id="mask3_00000031173658393869849640000008523395012754131381_">
	<path style="fill:#FFFFFF;filter:url(#Adobe_OpacityMaskFilter_00000035532649274808623200000017993683100816534702_);" d="
		M132.5,67h48.4c0.7,0,1.3,0.6,1.3,1.3v8.8c0,0.7-0.6,1.3-1.3,1.3h-48.4c-0.7,0-1.3-0.6-1.3-1.3v-8.8C131.2,67.6,131.8,67,132.5,67z
		"/>
</mask>
<g class="st5">
</g>
<path class="st6" d="M132.5,81.9h48.4c0.7,0,1.3,0.6,1.3,1.3V92c0,0.7-0.6,1.3-1.3,1.3h-48.4c-0.7,0-1.3-0.6-1.3-1.3v-8.8
	C131.2,82.5,131.8,81.9,132.5,81.9z"/>
<defs>
	<filter id="Adobe_OpacityMaskFilter_00000177486140299427045480000002734353302248676740_" filterUnits="userSpaceOnUse">
		<feColorMatrix  type="matrix" values="1 0 0 0 0  0 1 0 0 0  0 0 1 0 0  0 0 0 1 0"/>
	</filter>
</defs>
<mask maskUnits="userSpaceOnUse" id="mask4_00000085948441320743895550000014528991074198785714_">
	<path style="fill:#FFFFFF;filter:url(#Adobe_OpacityMaskFilter_00000177486140299427045480000002734353302248676740_);" d="
		M132.5,81.9h48.4c0.7,0,1.3,0.6,1.3,1.3V92c0,0.7-0.6,1.3-1.3,1.3h-48.4c-0.7,0-1.3-0.6-1.3-1.3v-8.8
		C131.2,82.5,131.8,81.9,132.5,81.9z"/>
</mask>
<g class="st8">
</g>
<path class="st6" d="M5.8,27.8h48.4c0.7,0,1.3,0.6,1.3,1.3v9.7c0,0.7-0.6,1.3-1.3,1.3H5.8c-0.7,0-1.3-0.6-1.3-1.3v-9.7
	C4.5,28.4,5.1,27.8,5.8,27.8z"/>
<path class="st6" d="M5.4,19.3h12.9c0.4,0,0.7,0.3,0.7,0.7v3.1c0,0.4-0.3,0.7-0.7,0.7H5.4c-0.4,0-0.7-0.3-0.7-0.7V20
	C4.8,19.6,5.1,19.3,5.4,19.3z"/>
<path class="st3" d="M89.6,0.1c-0.8,0-1.4,0.6-1.4,1.4v8.1c0,0.7,0.6,1.4,1.4,1.4h8.2c0.8,0,1.4-0.6,1.4-1.4V1.5
	c0-0.7-0.6-1.4-1.4-1.4H89.6z M95,1.5c-0.4,0-0.7,0.3-0.7,0.7v3.5c0,0.4,0.3,0.7,0.7,0.7h2c0.4,0,0.7-0.3,0.7-0.7V2.2
	c0-0.4-0.3-0.7-0.7-0.7H95z M90.3,1.5c-0.4,0-0.7,0.3-0.7,0.7v6.2c0,0.4,0.3,0.7,0.7,0.7h2C92.7,9,93,8.7,93,8.4V2.2
	c0-0.4-0.3-0.7-0.7-0.7H90.3z"/>
</svg>
