<svg width="24" height="24" role="presentation" focusable="false" viewBox="0 0 24 24" xmlns="http://www.w3.org/2000/svg"><path d="M3.03418 5.59621C2.98604 5.04603 3.39303 4.56099 3.94322 4.51286L19.8823 3.11837C20.4325 3.07023 20.9175 3.47722 20.9657 4.02741L21.0528 5.0236L3.12133 6.5924L3.03418 5.59621Z" fill="currentColor"/><path d="M9 12.9999C9 12.4476 9.44772 11.9999 10 11.9999H14C14.5523 11.9999 15 12.4476 15 12.9999C15 13.5522 14.5523 13.9999 14 13.9999H10C9.44772 13.9999 9 13.5522 9 12.9999Z" fill="currentColor"/><path fill-rule="evenodd" clip-rule="evenodd" d="M3 18.9999V7.99993H21V18.9999C21 20.1045 20.1046 20.9999 19 20.9999H5C3.89543 20.9999 3 20.1045 3 18.9999ZM5 9.99993H19V18.9999H5L5 9.99993Z" fill="currentColor"/></svg>