<svg role="img" aria-label="Coinbase" class="mx-3" fill="currentColor" height="26" viewBox="0 0 142 26" width="142" xmlns="http://www.w3.org/2000/svg"><path d="m28.6593 7.47952c-5.1559 0-9.1891 3.85948-9.1891 9.02738 0 5.168 3.9288 8.9931 9.1891 8.9931 5.2604 0 9.2576-3.8925 9.2576-9.0274 0-5.1006-3.9289-8.99308-9.2576-8.99308zm.0348 14.29568c-2.9376 0-5.0902-2.2486-5.0902-5.2683 0-3.0489 2.1178-5.3026 5.0554-5.3026 2.9724 0 5.1238 2.2867 5.1238 5.3026s-2.1514 5.2683-5.089 5.2683zm10.3493-10.3689h2.5625v13.7583h4.099v-17.34969h-6.6615zm-29.89159-.202c2.15259 0 3.86699 1.3085 4.51149 3.2547h4.3387c-.7863-4.1605-4.2704-6.97948-8.81281-6.97948-5.15853 0-9.18919 3.85948-9.18919 9.02738 0 5.168 3.92883 8.9931 9.18919 8.9931 4.44061 0 7.99171-2.819 8.77801-7.0138h-4.3039c-.6149 1.9462-2.3202 3.289-4.47411 3.289-2.9724 0-5.05541-2.2486-5.05541-5.2683 0-3.0489 2.05336-5.3026 5.01803-5.3026zm107.77219 3.6244-3.006-.4357c-1.435-.202-2.459-.6721-2.459-1.7786 0-1.2081 1.333-1.8128 3.142-1.8128 1.981 0 3.246.8397 3.519 2.2156h3.963c-.445-3.49108-3.178-5.53768-7.379-5.53768-4.336 0-7.202 2.18126-7.202 5.26828 0 2.9537 1.878 4.6649 5.671 5.201l3.006.437c1.469.2007 2.289.7711 2.289 1.8459 0 1.3758-1.434 1.9462-3.416 1.9462-2.425 0-3.792-.9731-3.995-2.4505h-4.036c.375 3.3894 3.074 5.7726 7.991 5.7726 4.476 0 7.447-2.0136 7.447-5.4703.001-3.087-2.15-4.6979-5.532-5.201zm-73.2686-14.161009c-1.5029 0-2.6308 1.073479-2.6308 2.550939 0 1.47747 1.1253 2.54968 2.6308 2.54968 1.5056 0 2.6308-1.07602 2.6308-2.54968 0-1.47365-1.1278-2.550939-2.6308-2.550939zm60.1546 13.085009c0-3.75908-2.32-6.27572-7.2417-6.27572-4.6403 0-7.2428 2.31592-7.7545 5.87302h4.0655c.2049-1.3758 1.298-2.5166 3.6207-2.5166 2.083 0 3.1078.9057 3.1078 2.0122 0 1.4432-1.8781 1.8129-4.2008 2.0479-3.1426.3354-7.0379 1.4089-7.0379 5.436 0 3.1201 2.3576 5.1337 6.115 5.1337 2.9376 0 4.7821-1.2082 5.7049-3.1201.137 1.7112 1.435 2.819 3.244 2.819h2.393v-3.5889h-2.016zm-4.0308 4.3625c0 2.3147-2.0495 4.0259-4.5437 4.0259-1.5364 0-2.8357-.6352-2.8357-1.9793 0-1.7112 2.083-2.1812 3.9958-2.3832 1.8446-.1677 2.8693-.5704 3.3823-1.3416zm-21.7594-10.63568c-1.0594-.01368-2.1087.20504-3.0717.6403-.9631.43527-1.8159 1.07619-2.4967 1.87634v-9.49616h-4.099v24.6646h4.0307v-2.2867c.676.8297 1.535 1.4968 2.5117 1.9504.9767.4537 2.0454.6821 3.125.6679 4.9188 0 8.6362-3.8264 8.6362-8.9931s-3.7857-9.02358-8.6362-9.02358zm-.6148 14.29568c-2.9376 0-5.0902-2.2486-5.0902-5.2683s2.1912-5.3026 5.1237-5.3026c2.9724 0 5.0567 2.2537 5.0567 5.3026 0 3.0197-2.1526 5.2683-5.0902 5.2683zm-18.8566-14.29568c-2.6644 0-4.4058 1.07348-5.4305 2.58398v-2.24859h-4.0655v17.34969h4.099v-9.4301c0-2.6513 1.7079-4.5302 4.2356-4.5302 2.3576 0 3.8257 1.6439 3.8257 4.0271v9.9332h4.099v-10.2355c0-4.3625-2.288-7.44958-6.7633-7.44958zm83.4516 8.45698c0-4.9672-3.689-8.45698-8.643-8.45698-5.26 0-9.121 3.89248-9.121 9.02738 0 5.4017 4.134 8.9931 9.19 8.9931 4.27 0 7.618-2.4836 8.471-6.0064h-4.269c-.615 1.5435-2.118 2.4137-4.134 2.4137-2.631 0-4.612-1.6108-5.055-4.4285h13.561zm-13.323-1.3428c.645-2.4137 2.494-3.5901 4.612-3.5901 2.32 0 4.099 1.3085 4.511 3.5901z"></path></svg>