<svg role="img" aria-label="John Deere" class="mx-3" fill="currentColor" height="65" viewBox="0 0 100 65" width="100" xmlns="http://www.w3.org/2000/svg"><path clip-rule="evenodd" d="m43.0232 16.091c-1.0892 2.2468-1.8378 4.6975-2.1784 7.4889-.0684 0-.613.0683-.613.0683-2.3829.2046-4.7653.4085-7.0804 1.2932l.1361.8853c3.8128 4.6975 9.599 7.5567 9.599 7.5567l-1.0892-2.1107c-.2723-.2039-1.0892-.4084-1.0892-.4084-2.5869-.8169-4.4252-4.2207-4.6975-4.7653 2.1106 0 4.0167.6124 5.7867 1.2253 1.2253.3407 2.3829.7486 3.5399.8853 2.0423.3401 4.1529 0 6.1268-.2729 1.566-.2039 3.0643-.2039 4.5625-.0683.2034.2045 1.7694 2.1106 3.3354 2.9275 1.9061.9531 7.4206 2.6547 7.6929 2.723.1356.0684 2.2467 2.2463 3.6077 4.6976-6.2641 2.8597-13.275 4.3562-20.2877 4.3562-7.0121 0-14.0241-1.4971-20.2871-4.3562-2.0423-5.31-3.1315-10.8927-3.1315-16.6111 0-5.6506 1.0892-11.2333 3.1315-16.54267 6.263-2.85974 13.275-4.356851 20.2871-4.356851 7.0804 0 14.0925 1.497671 20.2877 4.356851 2.0423 5.30987 3.1309 10.89207 3.1309 16.54267.0051 5.1707-.8697 10.3045-2.5868 15.1817-1.974-3.4043-2.7903-4.4252-2.7903-4.4252-.0678 0-2.7914-1.4298-3.4722-2.0428-.5451-.4768-.8163-1.4293-1.1575-2.5191-.4085-1.5654-.952-3.4721-2.4502-5.0376l1.7016-.6813c-.4762-3.1993-4.2885-5.2415-4.3563-5.2415l-.0689.0683c1.4982 1.8378 1.7705 3.3354 1.7705 4.2891 0 .4762-.0678.8163-.1355.9525-.4091-.204-3.1999-1.0893-9.6674-.8169-.8852 0-2.2467-.0678-3.0636-.817-.4769-.4084-.6808-1.0892-.6808-1.8383 0-2.2462.9531-5.2421 1.0892-5.65l1.6344.204c2.0423-1.0893 2.7908-2.1107 2.8586-2.2463-1.7016.2045-3.9478.6124-3.9478.6124.1361-.3406.5446-1.63378.5446-3.06365 0-1.56602-.4763-3.26764-2.4507-4.28905l-.1368.06835c.0684.0678 1.157 1.29316 1.157 2.92698 0 .47681-.0677 1.02142-.2723 1.49767-.6807-.20395-1.0892-.27175-1.8383-.27175-.4079-1.36207-1.5649-2.45128-3.1309-2.99589l-.0684.0678s1.7022 1.22592 1.77 2.92809c-.8169.0678-1.2932.20395-2.3146.47625-.4768-.68075-1.4298-1.22536-2.7235-1.36151v.13671s1.4976.47625 1.7699 1.63382c-.8841.40845-1.9739 1.02088-2.5869 1.56598l.0684.0684c3.8122-1.42987 7.3522-1.76997 8.2374-.6808.204.204.2723.4085.2723.6808 0 .2717-.1367.6808-.4084 1.0892-1.8378.4085-4.697 1.157-7.0115 2.0423l.3401.953s2.3145.4769 3.1998.6814c0 0 .3401.0678.1356.3395zm-42.313971 46.2467s1.231531.4477 2.612091.4477c1.49262 0 2.38797-.223 2.91017-.7464.41069-.4101.59727-1.1194.56029-2.2008v-7.0154h2.2014v7.3516c-.03698 3.2458-1.60413 4.6269-5.26116 4.6269-1.79126 0-3.022791-.2986-3.022791-.2986zm14.701571-7.3875c3.5074 0 5.5598 1.8658 5.5598 5.0001 0 2.2389-1.4551 4.851-5.5598 4.851-4.1417 0-5.59679-2.6121-5.59679-4.851-.00056-3.1343 2.08879-5.0001 5.59679-5.0001zm3.3954 4.8886c0-1.9028-1.231-2.9853-3.3954-2.9853s-3.4324 1.0825-3.4324 2.9853c0 2.6485 2.1639 3.0228 3.4324 3.0228s3.3954-.3749 3.3954-3.0228zm10.9324-4.6645v3.731h-5.6343v-3.731h-2.1638v9.4029h2.1638v-3.7691h5.6343v3.7691h2.202v-9.4029zm32.7615 7.4626v-1.8288h4.9995v-1.9028h-4.9995v-1.8288h6.4552v-1.9022h-8.6571v9.4029h8.6571v-1.9403zm9.7766 0v-1.8288h5.0001v-1.9028h-5.0001v-1.8288h6.4916v-1.9022h-8.6566v9.4029h8.6566v-1.9403zm20.5219 0v-1.8288h5.0001v-1.9028h-5.0001v-1.8288h6.4927v-1.9022h-8.6577v9.4029h8.6577v-1.9403zm-39.9254-7.8727c2.8356 0 4.4778 1.417 4.4778 3.8795 0 3.471-2.7981 3.9932-4.4778 3.9932h-3.0973v-7.8727zm0-1.9414h-5.2612v11.7544h5.2612c4.9255 0 6.6417-3.1343 6.6417-5.7834-.0006-3.7321-2.5-5.971-6.6417-5.971zm34.3275 8.1724c1.6798-.4101 2.2759-1.6797 2.2759-2.7992 0-1.9028-1.2309-3.0217-3.3573-3.0217h-6.1565v9.4023h2.1633v-3.4329h2.5751l2.6121 3.4329h2.6497zm-5.074-1.7912v-2.1275h3.9932c.7452 0 1.194.4113 1.194 1.045 0 .9334-.7463 1.0825-1.194 1.0825zm-41.0444 5.3732-5.6724-6.4182v6.4182h-2.1633v-9.4029h2.1633l5.6724 6.3431v-6.3431h2.1639v9.4029z" fill-rule="evenodd"></path></svg>