<svg role="img" aria-label="Grand Hyatt" class="mx-3" fill="currentColor" height="22" viewBox="0 0 162 22" width="162" xmlns="http://www.w3.org/2000/svg"><path d="m81.2142 0h-.7706v22h.7706z"></path><path d="m66.705 5.64576h-3.3908v10.95444h3.3908c3.6126 0 5.9276-2.1957 5.9276-5.4666 0-3.27083-2.315-5.46658-5.9276-5.46658zm-.111 9.62724h-1.7108v-8.26059h1.7108c3.0393 0 4.4511 1.69768 4.4511 4.13029 0 2.4327-1.4118 4.1303-4.4511 4.1303zm-11.4761-1.9953-7.3795-7.92349v11.21259h1.455v-7.56212l7.3764 7.92052v-11.23692h-1.4519zm-55.1179-2.1259c0 3.283 2.31186 5.4666 5.92761 5.4666h4.02573v-5.6822h-1.55665v4.3156h-2.35811c-3.03933 0-4.45111-1.6734-4.45111-4.1303 0-2.45696 1.41178-4.13035 4.45111-4.13035h3.91476v-1.34539h-4.02573c-3.61575 0-5.92761 2.19271-5.92761 5.46654zm25.3072-2.17446c0-2.4296-1.6954-3.32246-4.6453-3.32246h-3.3692v10.95442h1.5413v-9.61815h1.7662c2.2687 0 3.1257.40392 3.1318 1.97708 0 1.57317-.8631 1.97707-3.1318 1.97707h-1.0511l4.6484 5.6458h1.9605s-3.8347-4.4219-3.8038-4.4249c1.8957-.3219 2.9499-1.2847 2.9561-3.19797zm6.2883 7.61676h1.5165l1.1868-2.5875h4.9659l1.1652 2.5875h1.6275l-5.2402-11.28545zm3.4277-4.1667 1.7847-3.86916 1.754 3.87826z"></path><path d="m133.589 6.80588h4.066v9.67582h1.578v-9.67582h3.955v-1.35449h-9.599zm14.86-1.35449v1.35449h4.097v9.67582h1.578v-9.67582h4.137v-1.35449zm-38.814 5.61841-3.675-5.62145h-1.741l4.593 7.20985v3.8266h1.572v-3.8691l4.5-7.16735h-1.686zm8.717 5.4119h1.541l1.255-2.466h5.669l1.233 2.466h1.643l-5.672-11.42512zm3.585-4.0452 2.065-4.0696 2.025 4.0696z"></path><path d="m96.9256 10.5414h-5.9276v-5.08998h-1.5751v11.03648h1.5751v-4.5889h5.9276v4.5889h1.5783v-11.03648h-1.5783z"></path><path d="m160.912 5.45745c-.144-.00766-.289.01372-.424.06284-.136.04912-.26.12495-.365.22285-.105.09791-.188.21584-.245.3466-.057.13077-.087.27161-.087.41396 0 .14234.03.28319.087.41395s.14.2487.245.3466c.105.09791.229.17374.365.22286.135.04911.28.07049.424.06283.144.00766.289-.01372.424-.06283.136-.04912.26-.12495.365-.22286.105-.0979.188-.21584.245-.3466s.087-.27161.087-.41395c0-.14235-.03-.28319-.087-.41396-.057-.13076-.14-.24869-.245-.3466-.105-.0979-.229-.17373-.365-.22285-.135-.04912-.28-.0705-.424-.06284zm0 1.91027c-.173-.00181-.342-.05416-.485-.15043s-.253-.23213-.318-.39041-.08-.33188-.044-.49882c.035-.16695.12-.31974.244-.43908s.28-.19986.451-.23137c.17-.03152.346-.01261.505.05433.159.06693.295.17889.389.32171.095.14283.144.3101.143.48068.004.1147-.017.22897-.06.33552-.043.10656-.109.20306-.192.28335s-.182.14261-.291.18299-.226.05793-.342.05153z"></path><path d="m161.439 7.06712c-.099-.11541-.339-.39178-.385-.44948.043.00026.086-.00855.126-.02586s.076-.04272.105-.07456.051-.06939.064-.11018c.013-.0408.018-.08391.013-.1265 0-.23993-.154-.34927-.49-.34927h-.358v1.14799h.179v-.99614h.176c.24 0 .308.0486.308.19742 0 .14881-.074.1974-.308.1974h-.13l.494.6074h.225z"></path></svg>