<svg role="img" aria-label="Visa" class="mx-3" fill="currentColor" height="34" viewBox="0 0 100 34" width="100" xmlns="http://www.w3.org/2000/svg"><path d="m99.9649 32.8314c-.575-2.8096-1.1495-5.6195-1.7234-8.4296-.6704-3.2767-1.3411-6.5535-2.0122-9.8304-.6453-3.1541-1.2901-6.30789-1.9343-9.46127-.2625-1.28499-.525-2.56998-.7875-3.85497-.02-.09684-.0305-.17853-.1754-.17813146-2.1614.00876146-4.3231.00359146-6.4844.01594146-.7149.00398-1.4098.13907-2.0559.47181-.9031.46543-1.4453 1.24488-1.8258 2.17097-3.9799 9.69095-7.9607 19.38165-11.9422 29.07215-.0261.0637-.0738.1247-.059.2068.0336 0 .0661.0048.0981.0048 2.7411 0 5.482.0012 8.2227.0036.132 0 .1722-.055.2121-.1682.5222-1.484 1.0519-2.9652 1.5726-4.4495.0477-.1363.1102-.1754.2485-.1754 3.3461.0043 6.6924.0043 10.0391 0 .13 0 .1875.022.2171.1718.2907 1.482.5926 2.9616.8915 4.4419.0195.0965.0261.1794.171.179 2.4542-.0064 4.9085-.0087 7.3625-.0068v-.1196c-.0142-.0199-.0262-.0417-.0351-.0649zm-9.9008-11.1262c-2.1669-.0032-4.3337-.0041-6.5004-.0028-.0286-.0022-.0571-.0064-.0852-.0124 1.4215-3.9813 2.8981-7.9319 4.2899-11.97214.082.39174.1562.73324.2254 1.07594.7266 3.588 1.4535 7.176 2.1808 10.7639.0235.1176.0102.1475-.1105.1475z"></path><path d="m71.4257 21.168c-.2734-1.7076-1.1035-3.1134-2.3023-4.3089-1.1903-1.1871-2.5918-2.0566-4.0699-2.8117-1.1157-.5695-2.2375-1.1281-3.2782-1.8363-.4015-.2733-.7812-.5754-1.0937-.9535-.6801-.8173-.6801-1.80678 0-2.62567.2823-.33289.6278-.604 1.0156-.79698.8418-.43435 1.7488-.58538 2.6777-.63201 2.3829-.11954 4.6586.32398 6.8196 1.36323.1304.06257.264.11955.4039.18171.0168-.08209.0312-.13987.039-.19924.3438-2.16021.6836-4.32121 1.036-6.47982.0293-.18091-.0192-.23909-.1707-.29528-1.7337-.65418-3.5478-1.060499-5.3906-1.207414-.1825-.015143-.3727.012354-.5469-.06814h-2.3438c-.014.056984-.0609.037059-.0949.039849-.773.046038-1.5426.139185-2.3047.278941-2.0414.380954-3.9676 1.069144-5.6965 2.265404-1.8472 1.27795-3.2179 2.94283-3.9125 5.13372-.4222 1.33215-.566 2.6978-.3515 4.0869.2429 1.576 1.0004 2.885 2.0703 4.0203 1.109 1.1752 2.4293 2.0539 3.825 2.8253.868.4782 1.7719.8894 2.6285 1.3919.7422.4348 1.4684.8879 2.0453 1.5454.8117.9249.8524 2.167.1059 3.1293-.2555.3215-.5683.5908-.9219.7938-.7844.4674-1.643.7109-2.5391.779-1.8289.1391-3.6402 0-5.4168-.4893-1.3535-.3738-2.6312-.9456-3.8933-1.5581-.0719-.0351-.1395-.0901-.2344-.0873-.0309.1993-.0594.3894-.0895.5786-.3398 2.1476-.6807 4.2949-1.0226 6.442-.016.1012.0055.1435.0937.1773.2426.0937.4801.2029.7254.2897 2.4797.8791 5.0465 1.2545 7.6563 1.3473 1.4649.0505 2.931-.0533 4.375-.3096 1.8265-.3216 3.5734-.8815 5.1808-1.839 2.3118-1.3776 3.9598-3.3103 4.7016-5.9726.3856-1.3767.5008-2.7806.2742-4.1988z"></path><path d="m36.7864 1.0814c-2.6951 0-5.3904-.00146-8.086-.00439-.1769 0-.2531.04742-.3172.22356-2.582 7.10531-5.1686 14.20893-7.7597 21.31073-.0231.0626-.018.1479-.1032.1809-.1089-.5558-.216-1.1082-.3257-1.6601-.1847-.9298-.3702-1.8585-.5567-2.7862.0035-.0398.0078-.0829-.0293-.1128-.0066-.0649-.009-.1303-.0211-.194-.3466-1.8065-.694-3.613-1.0422-5.4195-.5695-2.94878-1.1289-5.90278-1.7164-8.8496-.2539-1.27516-.9883-2.13908-2.25-2.48657-.5152-.13827-1.0461-.20608-1.5789-.20163-4.21091 0-8.42172 0-12.632397 0-.019352.00199-.038852.00199-.058203 0-.15625-.03348-.202734.05977-.2238282.19366-.0175782.11516-.020313.23591-.08593801.33911v.11955c1.13515621.27894 2.24335621.64835 3.34335621 1.04524.8793.31879 1.7418.68022 2.58594 1.08229.88733.41547 1.75271.87808 2.59258 1.38595.00469.01753 0 .04622.02969.03984-.01993.06655.00976.12632.02578.18809l3.41722 13.14217c1.2278 4.7199 2.454 9.4404 3.6785 14.1615.0433.1681.1097.2136.2734.2132026 2.7149-.0056026 5.4296-.0056026 8.1442 0 .148 0 .2265-.0323026.2875-.1853026 4.1862-10.5015 8.3748-21.001 12.566-31.49856.0902-.22674.0902-.22714-.1574-.22714z"></path><path d="m48.1945 1.07855265c-1.0218.00521735-2.0441.00282735-3.066.00282735-1.5492 0-3.0987 0-4.6484 0-.1012 0-.1879-.00956-.2067.13828-.0425.33512-.1019.66826-.1562 1.00219-.4216 2.66429-.8432 5.32872-1.2648 7.99325-.3576 2.252-.7162 4.5036-1.0758 6.7548-.3839 2.422-.7666 4.8444-1.1481 7.2672-.4531 2.8606-.9088 5.7208-1.3672 8.5807-.0336.2072.0344.2056.1872.2052428 1.2761-.0044428 2.5519-.0024428 3.8281-.0024428h3.8863c.1219 0 .1801-.0199.2012-.1638.123-.8392.2594-1.6768.3906-2.5144.5076-3.2015 1.0154-6.4027 1.5234-9.6036.5081-3.2009 1.0159-6.4021 1.5235-9.6036.5208-3.2859 1.0439-6.5717 1.5691-9.85737.0328-.18968-.023-.20004-.1762-.19927735z"></path></svg>