<svg role="img" aria-label="Zoom" class="mx-3" fill="currentColor" height="29" viewBox="0 0 128 29" width="128" xmlns="http://www.w3.org/2000/svg"><path d="m104.215757 8.62575578c.489276.84415232.649348 1.80458242.702201 2.88431102l.069466 1.4391364v10.0633766l.070975 1.4406452c.14195 2.3527526 1.877067 4.0924006 4.247941 4.2403916l1.433096.0709748v-15.8153882l.070974-1.4391364c.058894-1.067648.217457-2.04619902.714282-2.89639166 1.030351-1.77480236 2.928842-2.86557103 4.981043-2.86183417 2.052202.00373686 3.946707 1.10141221 4.970588 2.87995513.489274.84415232.641795 1.8227034.700691 2.8782707l.070974 1.4346065v10.0679065l.070975 1.4406452c.147991 2.3648332 1.869518 4.1044812 4.247943 4.2403916l1.433094.0709748v-17.2545246c0-6.35339533-5.149118-11.50454107-11.502513-11.50704253-3.303647-.00348404-6.448571 1.41682176-8.630282 3.89759487-2.18263-2.47971727-5.32682-3.90024169-8.6302834-3.89910596-2.3889946 0-4.6058368.72485445-6.4421312 1.9767354-1.1205018-1.25037183-3.6272858-1.9767354-5.0664218-1.9767354v28.76307822l1.439136-.0709748c2.4071156-.1585625 4.1467636-1.8513958 4.2403904-4.2403916l.0770151-1.4406452v-10.0633766l.070976-1.4391364c.0604045-1.0857689.211415-2.0401587.7022016-2.89035134 1.0311165-1.77352074 2.9273525-2.86513631 4.9788339-2.86619008 2.0532224.00044337 3.9506074 1.09502218 4.9788354 2.8722304zm-98.46374548 20.06937002 1.43913549.0694656h21.57193139l-.070976-1.4346048c-.1948045-2.3648333-1.8695168-4.0924007-4.2419008-4.246432l-1.4391347-.0709748h-12.941649l17.2545245-17.26056482-.0709747-1.4330944c-.1117491-2.38899584-1.8574362-4.11505151-4.2419008-4.24643199l-1.439136-.0649344-21.5719309-.00604032.0709752 1.43913599c.18876383 2.34218112 1.8876383 4.1059904 4.24039069 4.2419008l1.44064563.07097472h12.94164868l-17.25452471 17.26056482.07097523 1.4391348c.14195034 2.3708736 1.85290573 4.0878694 4.2419008 4.2403916zm76.33005308-24.48342314c2.6975874 2.69700866 4.2131248 6.35528474 4.2131248 10.16984014 0 3.8145555-1.5155374 7.4728316-4.2131248 10.1698402-5.6192299 5.614683-14.7249799 5.614683-20.3442099 0-5.6161024-5.6161024-5.6161024-14.72357922 0-20.33968034 2.695107-2.69610236 6.3508832-4.21110413 10.1630439-4.21170267 3.8184259-.00264755 7.4812086 1.51309938 10.181166 4.21321307zm-4.0697472 4.072768c3.3684362 3.37098534 3.3684362 8.83372924 0 12.20471464-3.3709854 3.3684368-8.83373 3.3684368-12.2047155 0-3.3684362-3.3709854-3.3684362-8.8337293 0-12.20471464 3.3709855-3.36843678 8.8337301-3.36843678 12.2047155 0zm-36.2955097-8.28446719c3.8123775.00099559 7.4681842 1.51655332 10.1630438 4.21320959 5.6176115 5.61459072 5.6176115 14.72357794 0 20.33816994-5.6192299 5.614683-14.72498 5.614683-20.3442099 0-5.6161024-5.6161024-5.6161024-14.72357922 0-20.33968034 2.695107-2.69610236 6.3508831-4.21110413 10.1630438-4.21169919zm6.0932953 8.28144767c3.3694417 3.37115836 3.3694417 8.83506536 0 12.20622376-3.3709853 3.3684359-8.8337289 3.3684359-12.2047142 0-3.3684362-3.3709854-3.3684362-8.8337293 0-12.20471464 3.3709853-3.36843593 8.8337289-3.36843593 12.2047142 0z" fill-rule="evenodd"></path></svg>