<?xml version="1.0" encoding="utf-8"?>
<!-- Generator: Adobe Illustrator 26.3.1, SVG Export Plug-In . SVG Version: 6.00 Build 0)  -->
<svg version="1.1" id="Layer_1" focusable="false" xmlns="http://www.w3.org/2000/svg" xmlns:xlink="http://www.w3.org/1999/xlink"
	 x="0px" y="0px" viewBox="0 0 24 24" style="enable-background:new 0 0 24 24;" xml:space="preserve">
<style type="text/css">
	.st0{fill:#FFFFFF;}
</style>
<g id="XMLID_00000052079203705617181670000008310204168549905280_">
	<g>
		<path class="st0" d="M16.5,18.7l-0.9-5.1l3.7-3.6l-5.1-0.7L12,4.7L9.7,9.3l-5.1,0.7l3.7,3.6l-0.9,5.1l4.5-2.4L16.5,18.7z M22,9.9
			c0,0.3-0.2,0.7-0.4,0.9l-3.6,3.6l0.9,5c0.1,0.8-0.4,1.6-1.3,1.8c-0.3,0.1-0.7,0-1-0.1L12,18.6L7.5,21c-0.8,0.4-1.7,0.1-2.1-0.6
			c-0.2-0.3-0.2-0.6-0.2-1l0.9-5l-3.6-3.6c-0.6-0.6-0.6-1.6,0-2.2C2.7,8.4,3,8.2,3.3,8.2l5-0.7l2.2-4.6c0.4-0.8,1.3-1.1,2.1-0.7
			c0.3,0.1,0.6,0.4,0.7,0.7l2.2,4.6l5,0.7C21.5,8.3,22.1,9.1,22,9.9z"/>
	</g>
	<g>
	</g>
</g>
</svg>
